<?xml version="1.0" standalone="no"?>
<!DOCTYPE svg PUBLIC "-//W3C//DTD SVG 20010904//EN"
 "http://www.w3.org/TR/2001/REC-SVG-20010904/DTD/svg10.dtd">
<svg version="1.0" xmlns="http://www.w3.org/2000/svg"
 width="460.000000pt" height="460.000000pt" viewBox="0 0 460.000000 460.000000"
 preserveAspectRatio="xMidYMid meet">

<g transform="translate(0.000000,460.000000) scale(0.100000,-0.100000)"
fill="#000000" stroke="none">
<path d="M3825 3811 c-21 -19 -118 -41 -263 -61 -175 -23 -270 -51 -373 -112
-69 -41 -208 -165 -242 -217 -16 -23 -17 -24 -35 -8 -11 10 -27 35 -37 57 -17
39 -17 40 5 92 41 95 8 170 -89 203 -166 55 -520 34 -766 -46 -362 -117 -562
-351 -606 -709 -23 -190 36 -403 159 -574 l35 -48 -69 6 c-38 3 -206 15 -374
26 -535 34 -495 33 -514 15 -9 -9 -16 -23 -16 -32 0 -14 40 -178 81 -328 10
-38 33 -127 50 -196 l31 -126 51 -21 c29 -11 95 -37 147 -57 52 -20 123 -47
158 -61 55 -21 67 -23 105 -13 34 9 54 8 107 -5 78 -20 159 -70 171 -106 8
-21 26 -32 97 -58 51 -19 96 -30 108 -26 19 5 22 0 28 -47 8 -55 47 -215 63
-259 9 -22 5 -28 -33 -58 -68 -52 -74 -111 -12 -126 41 -10 157 13 219 45 34
17 89 71 89 88 0 4 27 59 61 122 96 180 150 222 248 193 101 -30 214 -121 372
-300 78 -89 110 -118 153 -138 104 -49 284 -57 322 -15 15 17 16 22 3 45 -7
15 -28 34 -46 42 l-33 16 0 175 c0 172 -18 345 -54 521 l-14 65 33 40 c82 101
132 256 120 375 -13 137 -40 221 -95 300 -18 25 -18 26 46 135 35 61 75 130
89 155 14 25 41 72 60 105 54 91 58 101 51 129 -13 52 -65 77 -112 54 -17 -8
-47 -49 -85 -113 -32 -55 -86 -148 -121 -207 -34 -59 -63 -106 -64 -105 -2 1
7 34 18 72 16 55 21 100 21 210 1 81 -4 157 -11 179 -6 22 -10 41 -9 42 1 2
23 -2 47 -7 65 -15 236 -12 295 5 28 8 99 34 158 59 59 25 132 48 162 52 33 4
55 11 55 19 0 7 -22 35 -50 64 -37 39 -51 62 -56 93 -4 22 -13 43 -20 46 -8 3
-35 -16 -61 -42 -78 -77 -172 -133 -283 -171 -40 -13 -84 -18 -164 -18 -101 0
-110 1 -127 23 -27 34 -24 43 29 94 126 123 317 197 501 197 66 0 226 -24 277
-40 46 -16 59 0 37 44 -23 44 -20 133 6 191 11 26 18 51 15 56 -7 12 -37 12
-49 0z m-973 -741 c-13 -239 -75 -401 -182 -475 -53 -37 -158 -65 -245 -65
-38 0 -128 9 -200 21 -141 23 -196 18 -232 -20 -27 -29 -90 -51 -143 -51 -53
0 -146 29 -193 61 -34 23 -117 108 -117 120 0 29 294 167 545 256 212 75 619
193 710 206 58 8 60 6 57 -53z m-1705 -906 c47 -36 72 -40 151 -25 23 5 42 5
42 2 0 -4 -22 -38 -50 -76 -54 -75 -56 -86 -36 -182 7 -35 11 -63 9 -63 -3 0
-17 9 -31 21 -127 97 -132 99 -225 84 -45 -8 -46 -12 20 83 l44 63 -10 69 c-6
38 -11 74 -11 81 0 13 25 -2 97 -57z m668 54 c14 -6 25 -14 25 -17 0 -4 -13
-22 -30 -41 l-29 -35 -1 53 c0 28 2 52 5 52 2 0 16 -5 30 -12z m406 -320 c6
-40 12 -95 13 -122 1 -46 -1 -50 -34 -67 -59 -32 -158 -18 -183 27 -8 15 -37
20 -37 6 0 -15 -59 -42 -93 -42 -46 0 -53 12 -36 64 33 101 190 203 316 205
l41 1 13 -72z"/>
<path d="M2330 2769 c-45 -18 -60 -39 -60 -86 0 -29 6 -49 20 -63 56 -56 160
-17 160 60 0 22 -4 25 -32 25 -30 0 -33 3 -38 34 -6 39 -14 44 -50 30z"/>
<path d="M1780 2610 c-25 -25 -25 -41 0 -68 27 -28 65 -28 84 0 23 33 21 61
-4 53 -13 -4 -23 0 -32 14 -16 26 -23 26 -48 1z"/>
<path d="M1130 2050 c-13 -24 2 -60 25 -60 17 0 45 27 45 44 0 36 -53 48 -70
16z"/>
</g>
</svg>
